<?xml version="1.0" encoding="UTF-8" standalone="no"?>
<!DOCTYPE svg PUBLIC "-//W3C//DTD SVG 1.1//EN"
 "http://www.w3.org/Graphics/SVG/1.1/DTD/svg11.dtd">
<!-- Generated by graphviz version 2.50.0 (0)
 -->
<!-- Title: snakemake_dag Pages: 1 -->
<svg width="364pt" height="836pt"
 viewBox="0.00 0.00 363.50 836.00" xmlns="http://www.w3.org/2000/svg" xmlns:xlink="http://www.w3.org/1999/xlink">
<g id="graph0" class="graph" transform="scale(1 1) rotate(0) translate(4 832)">
<title>snakemake_dag</title>
<polygon fill="white" stroke="transparent" points="-4,4 -4,-832 359.5,-832 359.5,4 -4,4"/>
<!-- 0 -->
<g id="node1" class="node">
<title>0</title>
<path fill="none" stroke="#d86e56" stroke-width="2" stroke-dasharray="5,2" d="M233.5,-36C233.5,-36 203.5,-36 203.5,-36 197.5,-36 191.5,-30 191.5,-24 191.5,-24 191.5,-12 191.5,-12 191.5,-6 197.5,0 203.5,0 203.5,0 233.5,0 233.5,0 239.5,0 245.5,-6 245.5,-12 245.5,-12 245.5,-24 245.5,-24 245.5,-30 239.5,-36 233.5,-36"/>
<text text-anchor="middle" x="218.5" y="-15.5" font-family="sans" font-size="10.00">all</text>
</g>
<!-- 1 -->
<g id="node2" class="node">
<title>1</title>
<path fill="none" stroke="#59d856" stroke-width="2" stroke-dasharray="5,2" d="M284.5,-828C284.5,-828 192.5,-828 192.5,-828 186.5,-828 180.5,-822 180.5,-816 180.5,-816 180.5,-804 180.5,-804 180.5,-798 186.5,-792 192.5,-792 192.5,-792 284.5,-792 284.5,-792 290.5,-792 296.5,-798 296.5,-804 296.5,-804 296.5,-816 296.5,-816 296.5,-822 290.5,-828 284.5,-828"/>
<text text-anchor="middle" x="238.5" y="-813" font-family="sans" font-size="10.00">fastp</text>
<text text-anchor="middle" x="238.5" y="-802" font-family="sans" font-size="10.00">sample: human_simu</text>
</g>
<!-- 1&#45;&gt;0 -->
<g id="edge1" class="edge">
<title>1&#45;&gt;0</title>
<path fill="none" stroke="grey" stroke-width="2" d="M269.36,-791.84C283.83,-782.64 300.49,-770.27 312.5,-756 340.79,-722.39 355.5,-710.93 355.5,-667 355.5,-667 355.5,-667 355.5,-161 355.5,-102.72 294.99,-59.19 254.4,-36.54"/>
<polygon fill="grey" stroke="grey" stroke-width="2" points="256.03,-33.44 245.57,-31.76 252.7,-39.6 256.03,-33.44"/>
</g>
<!-- 8 -->
<g id="node9" class="node">
<title>8</title>
<path fill="none" stroke="#d89556" stroke-width="2" stroke-dasharray="5,2" d="M149.5,-756C149.5,-756 77.5,-756 77.5,-756 71.5,-756 65.5,-750 65.5,-744 65.5,-744 65.5,-732 65.5,-732 65.5,-726 71.5,-720 77.5,-720 77.5,-720 149.5,-720 149.5,-720 155.5,-720 161.5,-726 161.5,-732 161.5,-732 161.5,-744 161.5,-744 161.5,-750 155.5,-756 149.5,-756"/>
<text text-anchor="middle" x="113.5" y="-735.5" font-family="sans" font-size="10.00">bowtie2_1stmap</text>
</g>
<!-- 1&#45;&gt;8 -->
<g id="edge12" class="edge">
<title>1&#45;&gt;8</title>
<path fill="none" stroke="grey" stroke-width="2" d="M207.92,-791.88C191.43,-782.64 170.88,-771.13 153.16,-761.21"/>
<polygon fill="grey" stroke="grey" stroke-width="2" points="154.63,-758.02 144.2,-756.19 151.21,-764.13 154.63,-758.02"/>
</g>
<!-- 11 -->
<g id="node12" class="node">
<title>11</title>
<path fill="none" stroke="#d8cb56" stroke-width="2" stroke-dasharray="5,2" d="M196.5,-612C196.5,-612 166.5,-612 166.5,-612 160.5,-612 154.5,-606 154.5,-600 154.5,-600 154.5,-588 154.5,-588 154.5,-582 160.5,-576 166.5,-576 166.5,-576 196.5,-576 196.5,-576 202.5,-576 208.5,-582 208.5,-588 208.5,-588 208.5,-600 208.5,-600 208.5,-606 202.5,-612 196.5,-612"/>
<text text-anchor="middle" x="181.5" y="-591.5" font-family="sans" font-size="10.00">bwa</text>
</g>
<!-- 1&#45;&gt;11 -->
<g id="edge16" class="edge">
<title>1&#45;&gt;11</title>
<path fill="none" stroke="grey" stroke-width="2" d="M233.93,-791.85C224.05,-754.75 200.63,-666.81 188.72,-622.1"/>
<polygon fill="grey" stroke="grey" stroke-width="2" points="192.05,-620.99 186.09,-612.23 185.28,-622.8 192.05,-620.99"/>
</g>
<!-- 14 -->
<g id="node15" class="node">
<title>14</title>
<path fill="none" stroke="#56a9d8" stroke-width="2" stroke-dasharray="5,2" d="M291.5,-756C291.5,-756 261.5,-756 261.5,-756 255.5,-756 249.5,-750 249.5,-744 249.5,-744 249.5,-732 249.5,-732 249.5,-726 255.5,-720 261.5,-720 261.5,-720 291.5,-720 291.5,-720 297.5,-720 303.5,-726 303.5,-732 303.5,-732 303.5,-744 303.5,-744 303.5,-750 297.5,-756 291.5,-756"/>
<text text-anchor="middle" x="276.5" y="-735.5" font-family="sans" font-size="10.00">star</text>
</g>
<!-- 1&#45;&gt;14 -->
<g id="edge19" class="edge">
<title>1&#45;&gt;14</title>
<path fill="none" stroke="grey" stroke-width="2" d="M247.89,-791.7C252.26,-783.64 257.56,-773.89 262.4,-764.98"/>
<polygon fill="grey" stroke="grey" stroke-width="2" points="265.52,-766.56 267.21,-756.1 259.37,-763.22 265.52,-766.56"/>
</g>
<!-- 2 -->
<g id="node3" class="node">
<title>2</title>
<path fill="none" stroke="#ced856" stroke-width="2" stroke-dasharray="5,2" d="M173.5,-684C173.5,-684 129.5,-684 129.5,-684 123.5,-684 117.5,-678 117.5,-672 117.5,-672 117.5,-660 117.5,-660 117.5,-654 123.5,-648 129.5,-648 129.5,-648 173.5,-648 173.5,-648 179.5,-648 185.5,-654 185.5,-660 185.5,-660 185.5,-672 185.5,-672 185.5,-678 179.5,-684 173.5,-684"/>
<text text-anchor="middle" x="151.5" y="-663.5" font-family="sans" font-size="10.00">bwa_index</text>
</g>
<!-- 2&#45;&gt;11 -->
<g id="edge15" class="edge">
<title>2&#45;&gt;11</title>
<path fill="none" stroke="grey" stroke-width="2" d="M158.92,-647.7C162.29,-639.81 166.37,-630.3 170.12,-621.55"/>
<polygon fill="grey" stroke="grey" stroke-width="2" points="173.45,-622.67 174.17,-612.1 167.01,-619.92 173.45,-622.67"/>
</g>
<!-- 3 -->
<g id="node4" class="node">
<title>3</title>
<path fill="none" stroke="#56d86b" stroke-width="2" stroke-dasharray="5,2" d="M73.5,-468C73.5,-468 43.5,-468 43.5,-468 37.5,-468 31.5,-462 31.5,-456 31.5,-456 31.5,-444 31.5,-444 31.5,-438 37.5,-432 43.5,-432 43.5,-432 73.5,-432 73.5,-432 79.5,-432 85.5,-438 85.5,-444 85.5,-444 85.5,-456 85.5,-456 85.5,-462 79.5,-468 73.5,-468"/>
<text text-anchor="middle" x="58.5" y="-447.5" font-family="sans" font-size="10.00">findcirc</text>
</g>
<!-- 3&#45;&gt;0 -->
<g id="edge2" class="edge">
<title>3&#45;&gt;0</title>
<path fill="none" stroke="grey" stroke-width="2" d="M57.12,-431.96C55.08,-405.32 51.5,-352.17 51.5,-307 51.5,-307 51.5,-307 51.5,-161 51.5,-118.81 54.99,-102.15 84.5,-72 110.56,-45.37 151.66,-31.79 181.47,-25.08"/>
<polygon fill="grey" stroke="grey" stroke-width="2" points="182.43,-28.46 191.5,-22.99 181,-21.61 182.43,-28.46"/>
</g>
<!-- 16 -->
<g id="node17" class="node">
<title>16</title>
<path fill="none" stroke="#56b9d8" stroke-width="2" stroke-dasharray="5,2" d="M172.5,-252C172.5,-252 142.5,-252 142.5,-252 136.5,-252 130.5,-246 130.5,-240 130.5,-240 130.5,-228 130.5,-228 130.5,-222 136.5,-216 142.5,-216 142.5,-216 172.5,-216 172.5,-216 178.5,-216 184.5,-222 184.5,-228 184.5,-228 184.5,-240 184.5,-240 184.5,-246 178.5,-252 172.5,-252"/>
<text text-anchor="middle" x="157.5" y="-231.5" font-family="sans" font-size="10.00">merge3</text>
</g>
<!-- 3&#45;&gt;16 -->
<g id="edge24" class="edge">
<title>3&#45;&gt;16</title>
<path fill="none" stroke="grey" stroke-width="2" d="M61.3,-431.53C66.77,-400.83 80.84,-335.9 108.5,-288 114.45,-277.7 122.72,-267.75 130.78,-259.3"/>
<polygon fill="grey" stroke="grey" stroke-width="2" points="133.47,-261.56 138.05,-252.01 128.51,-256.62 133.47,-261.56"/>
</g>
<!-- 18 -->
<g id="node19" class="node">
<title>18</title>
<path fill="none" stroke="#56d8d0" stroke-width="2" stroke-dasharray="5,2" d="M159.5,-396C159.5,-396 129.5,-396 129.5,-396 123.5,-396 117.5,-390 117.5,-384 117.5,-384 117.5,-372 117.5,-372 117.5,-366 123.5,-360 129.5,-360 129.5,-360 159.5,-360 159.5,-360 165.5,-360 171.5,-366 171.5,-372 171.5,-372 171.5,-384 171.5,-384 171.5,-390 165.5,-396 159.5,-396"/>
<text text-anchor="middle" x="144.5" y="-375.5" font-family="sans" font-size="10.00">merge1</text>
</g>
<!-- 3&#45;&gt;18 -->
<g id="edge28" class="edge">
<title>3&#45;&gt;18</title>
<path fill="none" stroke="grey" stroke-width="2" d="M79.76,-431.7C90.59,-422.88 103.92,-412.03 115.66,-402.47"/>
<polygon fill="grey" stroke="grey" stroke-width="2" points="117.94,-405.13 123.49,-396.1 113.52,-399.7 117.94,-405.13"/>
</g>
<!-- 4 -->
<g id="node5" class="node">
<title>4</title>
<path fill="none" stroke="#d8a456" stroke-width="2" stroke-dasharray="5,2" d="M96,-540C96,-540 19,-540 19,-540 13,-540 7,-534 7,-528 7,-528 7,-516 7,-516 7,-510 13,-504 19,-504 19,-504 96,-504 96,-504 102,-504 108,-510 108,-516 108,-516 108,-528 108,-528 108,-534 102,-540 96,-540"/>
<text text-anchor="middle" x="57.5" y="-519.5" font-family="sans" font-size="10.00">bowtie2_2ndmap</text>
</g>
<!-- 4&#45;&gt;3 -->
<g id="edge7" class="edge">
<title>4&#45;&gt;3</title>
<path fill="none" stroke="grey" stroke-width="2" d="M57.75,-503.7C57.86,-495.98 57.99,-486.71 58.11,-478.11"/>
<polygon fill="grey" stroke="grey" stroke-width="2" points="61.61,-478.15 58.26,-468.1 54.61,-478.05 61.61,-478.15"/>
</g>
<!-- 5 -->
<g id="node6" class="node">
<title>5</title>
<path fill="none" stroke="#d87d56" stroke-width="2" stroke-dasharray="5,2" d="M69.5,-612C69.5,-612 39.5,-612 39.5,-612 33.5,-612 27.5,-606 27.5,-600 27.5,-600 27.5,-588 27.5,-588 27.5,-582 33.5,-576 39.5,-576 39.5,-576 69.5,-576 69.5,-576 75.5,-576 81.5,-582 81.5,-588 81.5,-588 81.5,-600 81.5,-600 81.5,-606 75.5,-612 69.5,-612"/>
<text text-anchor="middle" x="54.5" y="-591.5" font-family="sans" font-size="10.00">anchors</text>
</g>
<!-- 5&#45;&gt;4 -->
<g id="edge8" class="edge">
<title>5&#45;&gt;4</title>
<path fill="none" stroke="grey" stroke-width="2" d="M55.24,-575.7C55.57,-567.98 55.97,-558.71 56.34,-550.11"/>
<polygon fill="grey" stroke="grey" stroke-width="2" points="59.84,-550.25 56.77,-540.1 52.84,-549.95 59.84,-550.25"/>
</g>
<!-- 6 -->
<g id="node7" class="node">
<title>6</title>
<path fill="none" stroke="#d8bc56" stroke-width="2" stroke-dasharray="5,2" d="M145.5,-828C145.5,-828 81.5,-828 81.5,-828 75.5,-828 69.5,-822 69.5,-816 69.5,-816 69.5,-804 69.5,-804 69.5,-798 75.5,-792 81.5,-792 81.5,-792 145.5,-792 145.5,-792 151.5,-792 157.5,-798 157.5,-804 157.5,-804 157.5,-816 157.5,-816 157.5,-822 151.5,-828 145.5,-828"/>
<text text-anchor="middle" x="113.5" y="-807.5" font-family="sans" font-size="10.00">bowtie2_index</text>
</g>
<!-- 6&#45;&gt;8 -->
<g id="edge11" class="edge">
<title>6&#45;&gt;8</title>
<path fill="none" stroke="grey" stroke-width="2" d="M113.5,-791.7C113.5,-783.98 113.5,-774.71 113.5,-766.11"/>
<polygon fill="grey" stroke="grey" stroke-width="2" points="117,-766.1 113.5,-756.1 110,-766.1 117,-766.1"/>
</g>
<!-- 7 -->
<g id="node8" class="node">
<title>7</title>
<path fill="none" stroke="#566bd8" stroke-width="2" stroke-dasharray="5,2" d="M87,-684C87,-684 12,-684 12,-684 6,-684 0,-678 0,-672 0,-672 0,-660 0,-660 0,-654 6,-648 12,-648 12,-648 87,-648 87,-648 93,-648 99,-654 99,-660 99,-660 99,-672 99,-672 99,-678 93,-684 87,-684"/>
<text text-anchor="middle" x="49.5" y="-663.5" font-family="sans" font-size="10.00">unmapped_reads</text>
</g>
<!-- 7&#45;&gt;5 -->
<g id="edge9" class="edge">
<title>7&#45;&gt;5</title>
<path fill="none" stroke="grey" stroke-width="2" d="M50.74,-647.7C51.29,-639.98 51.95,-630.71 52.56,-622.11"/>
<polygon fill="grey" stroke="grey" stroke-width="2" points="56.06,-622.33 53.28,-612.1 49.07,-621.83 56.06,-622.33"/>
</g>
<!-- 8&#45;&gt;7 -->
<g id="edge10" class="edge">
<title>8&#45;&gt;7</title>
<path fill="none" stroke="grey" stroke-width="2" d="M97.68,-719.7C89.93,-711.22 80.46,-700.86 71.98,-691.58"/>
<polygon fill="grey" stroke="grey" stroke-width="2" points="74.47,-689.12 65.14,-684.1 69.3,-693.85 74.47,-689.12"/>
</g>
<!-- 9 -->
<g id="node10" class="node">
<title>9</title>
<path fill="none" stroke="#a7d856" stroke-width="2" stroke-dasharray="5,2" d="M212.5,-468C212.5,-468 150.5,-468 150.5,-468 144.5,-468 138.5,-462 138.5,-456 138.5,-456 138.5,-444 138.5,-444 138.5,-438 144.5,-432 150.5,-432 150.5,-432 212.5,-432 212.5,-432 218.5,-432 224.5,-438 224.5,-444 224.5,-444 224.5,-456 224.5,-456 224.5,-462 218.5,-468 212.5,-468"/>
<text text-anchor="middle" x="181.5" y="-447.5" font-family="sans" font-size="10.00">circ_anno_bwa</text>
</g>
<!-- 9&#45;&gt;0 -->
<g id="edge3" class="edge">
<title>9&#45;&gt;0</title>
<path fill="none" stroke="grey" stroke-width="2" d="M193.1,-431.93C209.51,-406.09 237.5,-354.97 237.5,-307 237.5,-307 237.5,-307 237.5,-161 237.5,-120.86 229.95,-74.9 224.37,-46.4"/>
<polygon fill="grey" stroke="grey" stroke-width="2" points="227.76,-45.5 222.34,-36.39 220.89,-46.88 227.76,-45.5"/>
</g>
<!-- 9&#45;&gt;16 -->
<g id="edge22" class="edge">
<title>9&#45;&gt;16</title>
<path fill="none" stroke="grey" stroke-width="2" d="M183.62,-431.84C186.8,-402.14 191.34,-339.42 180.5,-288 178.6,-278.97 175.09,-269.59 171.38,-261.27"/>
<polygon fill="grey" stroke="grey" stroke-width="2" points="174.47,-259.61 167.01,-252.08 168.14,-262.61 174.47,-259.61"/>
</g>
<!-- 9&#45;&gt;18 -->
<g id="edge26" class="edge">
<title>9&#45;&gt;18</title>
<path fill="none" stroke="grey" stroke-width="2" d="M172.35,-431.7C168.1,-423.64 162.94,-413.89 158.23,-404.98"/>
<polygon fill="grey" stroke="grey" stroke-width="2" points="161.31,-403.31 153.54,-396.1 155.12,-406.58 161.31,-403.31"/>
</g>
<!-- 10 -->
<g id="node11" class="node">
<title>10</title>
<path fill="none" stroke="#80d856" stroke-width="2" stroke-dasharray="5,2" d="M214,-540C214,-540 149,-540 149,-540 143,-540 137,-534 137,-528 137,-528 137,-516 137,-516 137,-510 143,-504 149,-504 149,-504 214,-504 214,-504 220,-504 226,-510 226,-516 226,-516 226,-528 226,-528 226,-534 220,-540 214,-540"/>
<text text-anchor="middle" x="181.5" y="-519.5" font-family="sans" font-size="10.00">circ_parse_bwa</text>
</g>
<!-- 10&#45;&gt;9 -->
<g id="edge13" class="edge">
<title>10&#45;&gt;9</title>
<path fill="none" stroke="grey" stroke-width="2" d="M181.5,-503.7C181.5,-495.98 181.5,-486.71 181.5,-478.11"/>
<polygon fill="grey" stroke="grey" stroke-width="2" points="185,-478.1 181.5,-468.1 178,-478.1 185,-478.1"/>
</g>
<!-- 11&#45;&gt;10 -->
<g id="edge14" class="edge">
<title>11&#45;&gt;10</title>
<path fill="none" stroke="grey" stroke-width="2" d="M181.5,-575.7C181.5,-567.98 181.5,-558.71 181.5,-550.11"/>
<polygon fill="grey" stroke="grey" stroke-width="2" points="185,-550.1 181.5,-540.1 178,-550.1 185,-550.1"/>
</g>
<!-- 12 -->
<g id="node13" class="node">
<title>12</title>
<path fill="none" stroke="#8fd856" stroke-width="2" stroke-dasharray="5,2" d="M314,-468C314,-468 255,-468 255,-468 249,-468 243,-462 243,-456 243,-456 243,-444 243,-444 243,-438 249,-432 255,-432 255,-432 314,-432 314,-432 320,-432 326,-438 326,-444 326,-444 326,-456 326,-456 326,-462 320,-468 314,-468"/>
<text text-anchor="middle" x="284.5" y="-447.5" font-family="sans" font-size="10.00">circ_anno_star</text>
</g>
<!-- 12&#45;&gt;0 -->
<g id="edge4" class="edge">
<title>12&#45;&gt;0</title>
<path fill="none" stroke="grey" stroke-width="2" d="M290.37,-431.74C298.84,-405.25 313.5,-352.79 313.5,-307 313.5,-307 313.5,-307 313.5,-161 313.5,-113.01 275.56,-68.96 247.63,-43.04"/>
<polygon fill="grey" stroke="grey" stroke-width="2" points="249.83,-40.31 240.06,-36.22 245.15,-45.52 249.83,-40.31"/>
</g>
<!-- 12&#45;&gt;16 -->
<g id="edge23" class="edge">
<title>12&#45;&gt;16</title>
<path fill="none" stroke="grey" stroke-width="2" d="M276.18,-431.59C261.57,-401.53 229.78,-338.26 197.5,-288 191.52,-278.69 184.4,-268.91 177.83,-260.32"/>
<polygon fill="grey" stroke="grey" stroke-width="2" points="180.42,-257.94 171.52,-252.19 174.89,-262.23 180.42,-257.94"/>
</g>
<!-- 12&#45;&gt;18 -->
<g id="edge27" class="edge">
<title>12&#45;&gt;18</title>
<path fill="none" stroke="grey" stroke-width="2" d="M250.25,-431.88C229.24,-421.37 202.35,-407.92 180.94,-397.22"/>
<polygon fill="grey" stroke="grey" stroke-width="2" points="182.35,-394.01 171.84,-392.67 179.22,-400.27 182.35,-394.01"/>
</g>
<!-- 13 -->
<g id="node14" class="node">
<title>13</title>
<path fill="none" stroke="#68d856" stroke-width="2" stroke-dasharray="5,2" d="M315.5,-684C315.5,-684 253.5,-684 253.5,-684 247.5,-684 241.5,-678 241.5,-672 241.5,-672 241.5,-660 241.5,-660 241.5,-654 247.5,-648 253.5,-648 253.5,-648 315.5,-648 315.5,-648 321.5,-648 327.5,-654 327.5,-660 327.5,-660 327.5,-672 327.5,-672 327.5,-678 321.5,-684 315.5,-684"/>
<text text-anchor="middle" x="284.5" y="-663.5" font-family="sans" font-size="10.00">circ_parse_star</text>
</g>
<!-- 13&#45;&gt;12 -->
<g id="edge17" class="edge">
<title>13&#45;&gt;12</title>
<path fill="none" stroke="grey" stroke-width="2" d="M284.5,-647.85C284.5,-610.83 284.5,-523.18 284.5,-478.39"/>
<polygon fill="grey" stroke="grey" stroke-width="2" points="288,-478.23 284.5,-468.23 281,-478.23 288,-478.23"/>
</g>
<!-- 14&#45;&gt;13 -->
<g id="edge18" class="edge">
<title>14&#45;&gt;13</title>
<path fill="none" stroke="grey" stroke-width="2" d="M278.48,-719.7C279.36,-711.98 280.42,-702.71 281.4,-694.11"/>
<polygon fill="grey" stroke="grey" stroke-width="2" points="284.89,-694.44 282.55,-684.1 277.93,-693.64 284.89,-694.44"/>
</g>
<!-- 15 -->
<g id="node16" class="node">
<title>15</title>
<path fill="none" stroke="#56d8a9" stroke-width="2" stroke-dasharray="5,2" d="M184.5,-180C184.5,-180 130.5,-180 130.5,-180 124.5,-180 118.5,-174 118.5,-168 118.5,-168 118.5,-156 118.5,-156 118.5,-150 124.5,-144 130.5,-144 130.5,-144 184.5,-144 184.5,-144 190.5,-144 196.5,-150 196.5,-156 196.5,-156 196.5,-168 196.5,-168 196.5,-174 190.5,-180 184.5,-180"/>
<text text-anchor="middle" x="157.5" y="-159.5" font-family="sans" font-size="10.00">incorporate1</text>
</g>
<!-- 15&#45;&gt;0 -->
<g id="edge5" class="edge">
<title>15&#45;&gt;0</title>
<path fill="none" stroke="grey" stroke-width="2" d="M164.98,-143.83C169.49,-133.46 175.34,-119.98 180.5,-108 189.5,-87.1 199.61,-63.41 207.14,-45.73"/>
<polygon fill="grey" stroke="grey" stroke-width="2" points="210.55,-46.65 211.25,-36.07 204.11,-43.91 210.55,-46.65"/>
</g>
<!-- 19 -->
<g id="node20" class="node">
<title>19</title>
<path fill="none" stroke="#56d8b9" stroke-width="2" stroke-dasharray="5,2" d="M159.5,-108C159.5,-108 105.5,-108 105.5,-108 99.5,-108 93.5,-102 93.5,-96 93.5,-96 93.5,-84 93.5,-84 93.5,-78 99.5,-72 105.5,-72 105.5,-72 159.5,-72 159.5,-72 165.5,-72 171.5,-78 171.5,-84 171.5,-84 171.5,-96 171.5,-96 171.5,-102 165.5,-108 159.5,-108"/>
<text text-anchor="middle" x="132.5" y="-87.5" font-family="sans" font-size="10.00">incorporate2</text>
</g>
<!-- 15&#45;&gt;19 -->
<g id="edge29" class="edge">
<title>15&#45;&gt;19</title>
<path fill="none" stroke="grey" stroke-width="2" d="M151.32,-143.7C148.5,-135.81 145.11,-126.3 141.98,-117.55"/>
<polygon fill="grey" stroke="grey" stroke-width="2" points="145.27,-116.34 138.61,-108.1 138.68,-118.7 145.27,-116.34"/>
</g>
<!-- 16&#45;&gt;15 -->
<g id="edge20" class="edge">
<title>16&#45;&gt;15</title>
<path fill="none" stroke="grey" stroke-width="2" d="M157.5,-215.7C157.5,-207.98 157.5,-198.71 157.5,-190.11"/>
<polygon fill="grey" stroke="grey" stroke-width="2" points="161,-190.1 157.5,-180.1 154,-190.1 161,-190.1"/>
</g>
<!-- 17 -->
<g id="node18" class="node">
<title>17</title>
<path fill="none" stroke="#56d0d8" stroke-width="2" stroke-dasharray="5,2" d="M159.5,-324C159.5,-324 129.5,-324 129.5,-324 123.5,-324 117.5,-318 117.5,-312 117.5,-312 117.5,-300 117.5,-300 117.5,-294 123.5,-288 129.5,-288 129.5,-288 159.5,-288 159.5,-288 165.5,-288 171.5,-294 171.5,-300 171.5,-300 171.5,-312 171.5,-312 171.5,-318 165.5,-324 159.5,-324"/>
<text text-anchor="middle" x="144.5" y="-303.5" font-family="sans" font-size="10.00">merge2</text>
</g>
<!-- 17&#45;&gt;16 -->
<g id="edge21" class="edge">
<title>17&#45;&gt;16</title>
<path fill="none" stroke="grey" stroke-width="2" d="M147.71,-287.7C149.15,-279.98 150.87,-270.71 152.46,-262.11"/>
<polygon fill="grey" stroke="grey" stroke-width="2" points="155.94,-262.58 154.32,-252.1 149.06,-261.3 155.94,-262.58"/>
</g>
<!-- 18&#45;&gt;17 -->
<g id="edge25" class="edge">
<title>18&#45;&gt;17</title>
<path fill="none" stroke="grey" stroke-width="2" d="M144.5,-359.7C144.5,-351.98 144.5,-342.71 144.5,-334.11"/>
<polygon fill="grey" stroke="grey" stroke-width="2" points="148,-334.1 144.5,-324.1 141,-334.1 148,-334.1"/>
</g>
<!-- 19&#45;&gt;0 -->
<g id="edge6" class="edge">
<title>19&#45;&gt;0</title>
<path fill="none" stroke="grey" stroke-width="2" d="M153.76,-71.7C164.59,-62.88 177.92,-52.03 189.66,-42.47"/>
<polygon fill="grey" stroke="grey" stroke-width="2" points="191.94,-45.13 197.49,-36.1 187.52,-39.7 191.94,-45.13"/>
</g>
</g>
</svg>
